<?xml version="1.0" encoding="iso-8859-1"?>
<!-- Generator: Adobe Illustrator 18.0.0, SVG Export Plug-In . SVG Version: 6.00 Build 0)  -->
<!DOCTYPE svg PUBLIC "-//W3C//DTD SVG 1.1//EN" "http://www.w3.org/Graphics/SVG/1.1/DTD/svg11.dtd">
<svg version="1.1" id="Layer_1" xmlns="http://www.w3.org/2000/svg" xmlns:xlink="http://www.w3.org/1999/xlink" x="0px" y="0px"
	 width="220.394px" height="161.145px" viewBox="0 0 220.394 161.145" style="enable-background:new 0 0 220.394 161.145;"
	 xml:space="preserve">
<g>
	<path d="M13.081,126.464c-0.072-0.408-0.136-0.746-0.214-0.753l-5.677-0.497l0.192,0.663c0.118,0.559,0.265,1.331,0.324,2.498
		c0.06,1.167,0.095,2.263-0.011,3.469L6.002,151.21l5.977,0.523l1.694-19.365c0.104-1.187-0.09-2.314-0.164-3.536
		S13.153,126.872,13.081,126.464z"/>
	<rect x="17.393" y="126.362" transform="matrix(-0.9962 -0.0872 0.0872 -0.9962 27.8691 272.9409)" width="5" height="19"/>
	<path d="M35.833,129.689c-0.229-0.579-0.55-1.076-0.965-1.489c-0.415-0.414-0.977-0.764-1.687-1.051s-1.715-0.488-2.912-0.593
		c-1.197-0.105-2.025-0.099-3.035-0.03l-0.388,4.436l0.435-0.006c0.699-0.037,1.391-0.025,2.023,0.03
		c0.496,0.043,0.909,0.258,1.097,0.632c0.188,0.374,0.331,0.821,0.286,1.327l-0.61,6.975c-0.049,0.555-0.292,1.325-0.409,1.315
		l-4.69-0.41l-0.436,4.981l9.87,0.864l0.247-0.98c0.153-0.516,0.553-1.347,0.752-2.325c0.198-0.978,0.562-2.007,0.642-2.922
		l0.61-6.975c0.063-0.72-0.147-1.398-0.197-1.995C36.418,130.874,36.062,130.268,35.833,129.689z"/>
	<path d="M39.798,132.083l11.931,1.044l-3.201,6.674c-0.456,0.96-0.902,2.113-1.27,3.468c-0.369,1.355-0.618,2.404-0.684,3.153
		l-0.114,1.302l5.977,0.523l0.114-1.302c0.166-1.897,0.581-4.086,1.755-6.522l3.519-7.868l0.253-2.887l-17.932-1.569L39.798,132.083
		z"/>
	<rect x="38.697" y="135.296" transform="matrix(-0.9962 -0.0872 0.0872 -0.9962 70.616 292.6759)" width="6" height="19"/>
	<path d="M76.851,133.049c-0.212-0.376-0.504-0.742-0.874-1.098c-1.097-1.017-2.916-1.637-5.805-1.89
		c-2.889-0.253-6.075-0.35-9.095-0.252l-0.38,4.349l2.006,0.014l-0.76,8.683c-0.049,0.564-0.334,0.943-0.525,1.167
		c-0.191,0.223-0.39,0.327-0.896,0.282c-0.506-0.044-1.698-0.217-1.686-0.353l-0.356,4.071l0.105,0.171
		c0.215,0.117,0.427,0.235,0.865,0.377c0.439,0.141,0.814,0.226,1.242,0.264c1.897,0.166,3.336-0.09,4.376-0.764
		c0.478-0.311,0.864-0.718,1.188-1.219s0.377-1.05,0.53-1.615c0.152-0.565,0.076-1.224,0.139-1.943l0.789-9.018
		c0.997,0.077,0.588,0.037,1.074,0.079c1.907,0.167,2.83,1.194,2.665,3.071l-1.084,12.392l5.977,0.523l1.106-12.64
		c0.117-1.333,0.065-2.435-0.104-3.303C77.246,133.876,77.064,133.425,76.851,133.049z"/>
	<polygon points="86.32,128.122 81.339,127.686 80.642,135.656 89.598,136.439 86.766,143.764 84.467,151.048 90.041,151.536 
		92.265,144.435 92.348,144.354 95.664,136.056 95.934,132.978 85.972,132.107 	"/>
	<path d="M119.962,135.873c-1.142-1.07-3.235-1.739-6.124-1.992c-2.889-0.253-4.912-0.248-7.932-0.15l-1.666,19.046l15.939,1.395
		l1.163-13.297C121.54,138.609,121.104,136.943,119.962,135.873z M114.637,148.668l-3.985-0.349l0.89-10.169l1.562,0.078
		c0.944,0.083,1.429,0.252,1.888,0.548s0.444,0.75,0.387,1.401L114.637,148.668z"/>
	<path d="M140.773,146.472c0.269-0.496,0.259-0.98,0.371-1.416s-0.006-0.973,0.046-1.576l0.568-6.492l-4.981-0.436l-0.572,6.536
		c-0.062,0.71-0.326,1.216-0.512,1.543l-1.246-2.034l-3.293-6.536l-6.304-0.552c1.373,2.128,2.551,4.683,3.617,6.727
		c-1.548,0.433-2.593,1.069-3.154,2.098c-0.279,0.495-0.31,0.935-0.428,1.385c-0.118,0.45-0.035,0.934-0.086,1.518l-0.637,7.285
		l4.981,0.436l0.641-7.328c0.068-0.778,0.36-1.085,0.57-1.36l4.529,9.191l6.319,0.553c-0.75-2.073-1.98-4.037-3.581-7.138
		C139.18,148.442,140.242,147.504,140.773,146.472z"/>
	<path d="M161.883,140.488c-0.212-0.376-0.504-0.742-0.874-1.098c-1.097-1.017-3.093-1.653-5.982-1.906
		c-2.889-0.253-6.252-0.366-9.273-0.267l-0.38,4.349l2.006,0.014l-0.76,8.683c-0.049,0.564-0.156,0.959-0.347,1.182
		s-0.479,0.319-0.985,0.275c-0.506-0.044-0.791-0.138-1.775-0.361l-0.356,4.071l0.282,0.186c0.215,0.117,0.515,0.243,0.954,0.384
		c0.439,0.141,0.858,0.23,1.286,0.267c1.897,0.166,3.358-0.088,4.398-0.762c0.478-0.311,0.875-0.717,1.199-1.219
		c0.323-0.501,0.704-1.022,0.856-1.587c0.152-0.565,0.403-1.195,0.466-1.915l0.789-9.018c0.001-0.01,0.588,0.037,1.074,0.079
		c1.907,0.167,2.83,1.194,2.665,3.071l-1.084,12.392l4.981,0.436l1.106-12.64c0.117-1.333,0.242-2.42,0.073-3.287
		C162.1,141.299,162.095,140.865,161.883,140.488z"/>
	<path d="M181.91,143.263c-0.149-0.591-0.396-1.101-0.741-1.528c-0.345-0.427-0.791-0.821-1.338-1.183
		c-1.056-0.7-2.845-1.161-5.18-1.365c-2.909-0.254-4.957-0.247-7.978-0.139l-0.379,4.334l1.316-0.017
		c2.357-0.049,4.255-0.01,5.967,0.14c1.907,0.167,2.641,1.177,2.477,3.055l-1.085,12.407l5.977,0.523l1.085-12.407
		c0.069-0.788,0.125-1.472,0.103-2.057S182.06,143.854,181.91,143.263z"/>
	<rect x="165.475" y="147.377" transform="matrix(-0.9962 -0.0872 0.0872 -0.9962 322.9857 319.855)" width="6" height="11"/>
	<path d="M198.989,148.316c0.099-1.128,0.098-2.104-0.016-2.928c-0.104-0.833-0.406-1.594-0.914-2.286
		c-0.427-0.606-1.193-1.134-2.301-1.583c-0.993-0.41-2.46-0.7-4.23-0.855c-2.685-0.235-4.893-0.278-5.911-0.112l-0.379,4.356h0.998
		c1.707,0,3.042-0.007,4.248,0.099c1.917,0.168,2.671,1.168,2.506,3.046l-0.65,7.42l-7.97-0.7l-0.436,4.98l15.939,1.394l0.436-4.981
		l-1.992-0.174L198.989,148.316z"/>
	<path d="M10.197,0L0,116.555l210.197,18.39L220.394,18.39L10.197,0z M207.47,131.695L3.25,113.828L12.924,3.25l204.22,17.867
		L207.47,131.695z"/>
	<path d="M211.815,24.666L16.56,7.583l-8.89,101.612l195.254,17.083L211.815,24.666z M160.822,31.247l8.193,0.717l-3.138,35.863
		l-8.966-0.784l1.666-19.04c0.199-2.27,0.272-4.356,0.533-6.231c-0.766,0.777-1.651,1.461-2.499,2.069l-4.337,2.954l-4.428-6.625
		L160.822,31.247z M71.937,51.577l7.63,0.667c0.193,0.017,0.449-1.213,0.529-2.13l1.01-11.542c0.073-0.837-0.071-1.567-0.381-2.187
		c-0.311-0.619-0.889-0.966-1.71-1.038c-1.047-0.092-2.003-0.094-3.16-0.033l-0.489,0.03l0.642-7.341
		c1.019-0.17,2.804-0.144,4.784,0.029c1.98,0.173,3.482,0.491,4.657,0.967c1.175,0.476,2.067,1.053,2.754,1.737
		c0.686,0.685,1.2,1.504,1.578,2.462c0.379,0.958,0.424,1.915,0.507,2.903c0.084,0.989-0.112,2.063-0.217,3.254l-1.01,11.542
		c-0.132,1.514-0.186,3.094-0.514,4.712c-0.328,1.618-0.546,3.036-0.799,3.89l-0.307,1.463L71.24,59.547L71.937,51.577z
		 M21.102,47.46c1.188,0.331,2.2,0.533,3.037,0.606c0.837,0.073,1.32-0.083,1.637-0.453c0.316-0.369,0.422-1.029,0.504-1.963
		l1.257-14.367l-3.012,0.004l0.63-7.196c5.033-0.16,10.479,0.017,15.26,0.435c4.781,0.418,8.04,1.466,9.856,3.149
		c0.613,0.589,1.076,1.193,1.427,1.816c0.351,0.623,0.367,1.342,0.536,2.2c0.28,1.436,0.08,3.235-0.113,5.44L50.32,57.717
		l-8.966-0.784l1.765-20.175c0.272-3.107-0.947-4.779-4.102-5.055c-0.805-0.07-1.468-0.12-1.47-0.104l-1.306,14.923
		c-0.104,1.191-0.486,2.237-0.738,3.172c-0.252,0.935-0.747,1.808-1.282,2.637c-0.535,0.829-1.249,1.497-2.04,2.011
		c-1.72,1.115-4.174,1.533-7.313,1.258c-0.708-0.062-1.438-0.211-2.164-0.445c-0.726-0.234-1.273-0.448-1.629-0.641l-0.563-0.317
		L21.102,47.46z M51.466,101.985l-10.958-0.959l2.014-23.016c0.312-3.571-1.14-5.497-4.766-5.815
		c-0.925-0.081-1.739-0.143-1.741-0.125l-1.501,17.152c-0.12,1.369-0.439,2.581-0.728,3.656c-0.29,1.075-0.799,2.083-1.413,3.037
		c-0.615,0.953-1.406,1.722-2.315,2.314c-1.977,1.281-4.783,1.763-8.391,1.447c-0.814-0.071-1.645-0.242-2.479-0.511
		c-0.834-0.268-1.459-0.514-1.868-0.737l-0.643-0.364l0.677-7.743c1.365,0.381,2.528,0.613,3.491,0.697
		c0.961,0.084,1.644-0.085,2.007-0.51c0.363-0.425,0.611-1.172,0.705-2.245L25,71.751l-4.012-0.043l0.724-8.271
		c6.037-0.162,12.193,0.032,17.688,0.513c5.495,0.481,9.315,1.692,11.402,3.626c0.705,0.677,1.274,1.375,1.678,2.091
		c0.403,0.716,0.7,1.567,0.893,2.553c0.322,1.65,0.37,3.743,0.148,6.277L51.466,101.985z M60.082,26.448l8.966,0.784l-2.789,31.878
		l-8.966-0.784L60.082,26.448z M69.397,103.554l-10.958-0.959l3.138-35.863l10.958,0.959L69.397,103.554z M89.027,85.714l-6.3,6.96
		l-4.314-0.377l2.092-23.909l9.962,0.872L89.027,85.714z M120.227,84.78l-2.016,23.044l-9.962-0.872l2.016-23.044
		c0.312-3.571-1.599-5.537-5.225-5.855c-2.738-0.24-6.278-0.344-10.299-0.285l0.731-8.354c4.019-0.04,7.193,0.042,10.07,0.294
		c2.877,0.252,5.143,0.59,6.756,1.01c1.613,0.421,2.955,0.976,4.004,1.665c1.049,0.689,1.903,1.435,2.55,2.237
		c0.647,0.803,1.115,1.771,1.398,2.905c0.283,1.134,0.256,2.242,0.299,3.354C120.592,81.992,120.358,83.281,120.227,84.78z
		 M129.199,47.005c-0.482,2.732-1.205,5.151-2.156,7.127c-0.952,1.977-2.011,3.567-3.173,4.706
		c-1.163,1.139-2.526,2.034-4.089,2.651c-1.563,0.618-3.116,1.177-4.628,1.312c-1.513,0.135-3.21,0.305-5.061,0.143l-13.715-1.2
		l0.157-32.109l9.103,0.796l-0.076,14.771c0.193,0.017,0.418,0.045,0.685-0.045c0.267-0.09,0.5-0.199,0.704-0.393
		c0.203-0.193,0.416-0.495,0.642-0.937c0.225-0.443,0.4-1.097,0.503-1.72l1.961-11.289l9.031,0.79l-1.927,11.178
		c-0.211,1.296-0.545,2.52-0.991,3.543c-0.447,1.024-0.94,1.889-1.475,2.531c-0.535,0.643-1.148,1.21-1.837,1.668
		c-0.689,0.459-1.335,0.8-1.937,1.006c-0.602,0.207-1.269,0.594-1.959,0.696c-0.986,0.141-2.03,0.398-3.093,0.305l-0.386-0.034
		l0.115,2.018l6.278,0.549c2.012,0.176,3.734-0.271,5.201-1.74c1.467-1.469,2.508-3.966,3.12-7.433l2.439-13.977l9.103,0.796
		L129.199,47.005z M156.066,111.136l-10.958-0.959l2.016-23.044c0.312-3.571-1.069-5.491-4.695-5.808
		c-0.962-0.084-1.812-0.13-2.813-0.162l-2.477,28.317l-10.958-0.959l3.121-35.672c4.046-0.354,9.361-0.244,14.893,0.24
		c4.422,0.387,7.598,1.215,9.63,2.492c1.062,0.652,1.891,1.368,2.541,2.152c0.649,0.784,1.103,1.737,1.387,2.862
		c0.283,1.125,0.442,2.262,0.481,3.412c0.039,1.15-0.013,2.511-0.151,4.084L156.066,111.136z M183.897,113.571l-8.129-17.159
		c-0.4,0.524-0.47,1.428-0.599,2.908l-1.171,13.386l-10.958-0.959l1.164-13.302c0.097-1.11,0.182-2.1,0.406-2.957
		c0.224-0.856,0.563-1.759,1.093-2.701c1.066-1.958,3.038-3.196,5.981-4.02c-2.028-3.887-4.286-8.761-6.88-13.003l11.989,1.049
		l6.11,12.628l2.284,4.149c0.353-0.622,0.668-1.679,0.786-3.029l1.124-12.847l10.958,0.959l-1.117,12.763
		c-0.1,1.147-0.425,2.121-0.637,2.951c-0.212,0.83-0.658,1.709-1.169,2.653c-1.011,1.962-3.049,3.466-6.011,4.289
		c3.045,5.897,5.296,10.153,6.793,13.295L183.897,113.571z M196.954,66.3c-2.33,2.716-5.653,3.885-9.967,3.508
		c-8.5-0.744-12.216-7.216-11.148-19.419c0.538-6.149,1.985-10.593,4.342-13.331c2.356-2.738,5.66-3.921,9.909-3.549
		c4.25,0.372,7.316,2.181,9.197,5.428c1.881,3.247,2.553,7.941,2.016,14.082C200.766,59.159,199.316,63.587,196.954,66.3z"/>
	<path d="M189.483,41.144c-1.167-0.102-2.066,0.578-2.697,2.039c-0.631,1.462-1.122,4.205-1.474,8.229
		c-0.352,4.025-0.34,6.804,0.037,8.337c0.377,1.534,1.152,2.352,2.328,2.454c1.175,0.103,2.072-0.597,2.69-2.101
		c0.631-1.469,1.119-4.168,1.463-8.096c0.344-3.928,0.33-6.695-0.04-8.301C191.419,42.1,190.65,41.246,189.483,41.144z"/>
</g>
</svg>
