<?xml version="1.0" encoding="iso-8859-1"?>
<!-- Generator: Adobe Illustrator 18.0.0, SVG Export Plug-In . SVG Version: 6.00 Build 0)  -->
<!DOCTYPE svg PUBLIC "-//W3C//DTD SVG 1.1//EN" "http://www.w3.org/Graphics/SVG/1.1/DTD/svg11.dtd">
<svg version="1.1" id="Layer_1" xmlns="http://www.w3.org/2000/svg" xmlns:xlink="http://www.w3.org/1999/xlink" x="0px" y="0px"
	 width="47.407px" height="47.407px" viewBox="0 0 47.407 47.407" style="enable-background:new 0 0 47.407 47.407;"
	 xml:space="preserve">
<path style="fill:#FFFFFF;" d="M23.704,0C10.613,0,0,10.613,0,23.704s10.613,23.704,23.704,23.704
	c13.091,0,23.704-10.613,23.704-23.704S36.795,0,23.704,0z M29.97,38.117c-2.017-0.153-15.165-3.311-20.703-18.951
	c-1.121-3.28,0.264-8.568,4.016-9.749c3.806-1.23,5.754,4.088,6.309,7.451l-3.32,3.317c0,0-0.094,2.073,4.45,6.617
	c4.539,4.541,6.615,4.449,6.615,4.449l3.858-3.855c2.438,0.514,7.324,3.619,7.324,3.619C37.912,35.599,34.803,38.627,29.97,38.117z"
	/>
</svg>
