<?xml version="1.0" encoding="iso-8859-1"?>
<!-- Generator: Adobe Illustrator 18.0.0, SVG Export Plug-In . SVG Version: 6.00 Build 0)  -->
<!DOCTYPE svg PUBLIC "-//W3C//DTD SVG 1.1//EN" "http://www.w3.org/Graphics/SVG/1.1/DTD/svg11.dtd">
<svg version="1.1" id="Layer_1" xmlns="http://www.w3.org/2000/svg" xmlns:xlink="http://www.w3.org/1999/xlink" x="0px" y="0px"
	 width="152px" height="152px" viewBox="0 0 152 152" style="enable-background:new 0 0 152 152;" xml:space="preserve">
<g>
	<circle style="fill:#FFFFFF;stroke:#32D0D2;stroke-width:2;stroke-miterlimit:10;" cx="76" cy="76" r="75"/>
	<g>
		<path style="fill:#32D0D2;" d="M47.427,50.577v25.58h-1.868v-25.58c0-2.319-0.403-4.669-1.208-7.05h1.886
			c0.085,0.27,0.195,0.632,0.329,1.09c0.135,0.458,0.312,1.31,0.531,2.555S47.427,49.552,47.427,50.577z"/>
		<path style="fill:#32D0D2;" d="M55.923,67.148h-1.868V43.527h1.868V67.148z"/>
		<path style="fill:#32D0D2;" d="M73.592,66.837v0.312h-1.831v-0.312c0-0.476,0.055-0.988,0.165-1.538l0.257-1.336
			c0.134-0.647,0.378-1.618,0.732-2.912c0.354-1.294,0.564-2.068,0.631-2.325c0.067-0.257,0.189-0.689,0.366-1.3
			s0.284-0.989,0.321-1.136l3.148-11.151H62.587v-1.611H79.25v1.611L76.101,56.29c-0.146,0.501-0.32,1.117-0.521,1.85
			c-0.202,0.732-0.382,1.38-0.541,1.94c-0.158,0.563-0.283,1.025-0.375,1.393c-0.092,0.365-0.201,0.799-0.329,1.3
			c-0.129,0.5-0.229,0.925-0.303,1.272s-0.146,0.711-0.22,1.09C73.665,65.892,73.592,66.459,73.592,66.837z M64.474,76.157h-1.868
			V53.251h1.868V76.157z"/>
		<path style="fill:#32D0D2;" d="M83.865,58.322V43.527h1.867v12.708l-1.703,2.087H83.865z"/>
		<path style="fill:#32D0D2;" d="M107.394,43.527v8.643c0,2.247-0.373,3.968-1.117,5.164c-0.306,0.477-0.735,0.922-1.291,1.337
			s-1.212,0.72-1.969,0.915l4.578,7.563h-2.014l-8.845-14.63c-0.549,0-1.086,0.152-1.611,0.458
			c-0.866,0.488-1.489,1.211-1.867,2.169c-0.379,0.959-0.567,2.226-0.567,3.8v8.203h-1.795v-8.222c0-2.075,0.263-3.655,0.787-4.742
			c0.232-0.488,0.519-0.958,0.861-1.41c0.707-0.928,1.794-1.531,3.259-1.813l-4.505-7.435h1.996l8.789,14.521
			c0.403-0.073,0.763-0.195,1.08-0.366c0.892-0.488,1.521-1.145,1.887-1.968c0.366-0.824,0.549-2.012,0.549-3.562v-8.625H107.394z"
			/>
		<path style="fill:#32D0D2;" d="M32.302,88.345c1.904-0.122,3.485-0.183,4.742-0.183c1.258,0,2.286,0.052,3.086,0.155
			c0.799,0.104,1.584,0.305,2.353,0.604c0.769,0.299,1.407,0.689,1.913,1.172c0.507,0.482,0.916,1.123,1.228,1.922
			c0.311,0.8,0.467,1.737,0.467,2.811v15.711h2.765v1.611H32.32v-1.611h11.901V94.826c0-1.635-0.434-2.855-1.3-3.662
			c-0.696-0.671-1.807-1.086-3.333-1.244c-0.61-0.074-1.428-0.11-2.453-0.11s-2.637,0.067-4.834,0.201V88.345z"/>
		<path style="fill:#32D0D2;" d="M67.349,112.148h-16.26v-1.611h14.044l-6.024-9.009l-7.947-13.001h1.979l7.049,11.719l1.008,1.502
			c2.429-2.258,3.82-5.114,4.174-8.569l0.458-4.651h1.648l-0.439,4.651c-0.184,1.917-0.696,3.738-1.538,5.466
			c-0.843,1.728-1.966,3.226-3.369,4.495l5.219,7.855V112.148z"/>
		<path style="fill:#32D0D2;" d="M74.452,112.148h-1.868V88.527h1.868V112.148z"/>
		<path style="fill:#32D0D2;" d="M98.037,88.527L97.012,98.69c-0.33,3.345-1.575,6.269-3.736,8.771
			c-1.05,1.233-2.361,2.273-3.937,3.122c-1.574,0.849-3.378,1.422-5.41,1.721c-2.033,0.3-3.745,0.547-5.137,0.742v-1.611l5.2-0.77
			c0.732-0.109,1.483-0.286,2.252-0.53L80.55,88.527h1.813l2.765,10.693l2.509,10.364c2.099-0.952,3.845-2.371,5.236-4.257
			c1.392-1.887,2.216-4.099,2.472-6.638l1.007-10.163H98.037z"/>
		<path style="fill:#32D0D2;" d="M111.202,88.162c2.185,0,3.848,0.695,4.989,2.087s1.712,3.284,1.712,5.677v16.223h-7.049v-1.611
			h5.2V95.926c0-1.88-0.442-3.369-1.328-4.469c-0.885-1.098-2.06-1.647-3.524-1.647c-1.014,0-1.935,0.122-2.765,0.366
			s-1.48,0.54-1.95,0.888c-0.47,0.349-0.867,0.696-1.19,1.044s-0.54,0.645-0.649,0.889l-0.184,0.365l-1.776,18.787h-1.867
			l1.758-18.402c0.049-0.866-0.007-1.593-0.165-2.179c-0.049-0.195-0.086-0.348-0.109-0.458c-0.025-0.109-0.077-0.274-0.156-0.494
			s-0.131-0.366-0.155-0.439c-0.049-0.171-0.165-0.482-0.349-0.934l-0.311-0.824h1.996c0.451,1.05,0.75,1.91,0.896,2.582h0.238
			c0.158-0.244,0.467-0.553,0.925-0.925s0.925-0.681,1.4-0.925c0.477-0.244,1.111-0.47,1.904-0.678
			C109.487,88.266,110.323,88.162,111.202,88.162z"/>
	</g>
</g>
</svg>
