<?xml version="1.0" encoding="iso-8859-1"?>
<!-- Generator: Adobe Illustrator 18.0.0, SVG Export Plug-In . SVG Version: 6.00 Build 0)  -->
<!DOCTYPE svg PUBLIC "-//W3C//DTD SVG 1.1//EN" "http://www.w3.org/Graphics/SVG/1.1/DTD/svg11.dtd">
<svg version="1.1" id="Layer_1" xmlns="http://www.w3.org/2000/svg" xmlns:xlink="http://www.w3.org/1999/xlink" x="0px" y="0px"
	 width="304.993px" height="86.626px" viewBox="0 0 304.993 86.626" style="enable-background:new 0 0 304.993 86.626;"
	 xml:space="preserve">
<g>
	<path style="fill:#FFFFFF;" d="M93.377,16.649c-10.686,0-19.278,2.809-25.534,8.345c-2.911,2.573-5.127,5.561-6.615,8.867
		c-1.922-3.509-4.471-6.566-7.623-9.138c-6.427-5.257-14.978-7.922-24.892-7.922c-10.708,0-18.386,1.826-23.486,5.584L4.853,22.67
		l-0.317,0.336C1.535,25.946,0,29.859,0,34.322c0,3.573,1.176,6.771,3.23,9.373c-0.231,0.304-0.306,0.607-0.496,0.905l-0.74,1.687
		v31.616l0.493,1.556c2.575,4.611,7.138,6.949,14.372,6.949c6.509,0,11.429-1.997,14.672-5.935l1.463-1.895v-0.179l1.009,1.403
		c2.816,4.416,7.988,6.656,15.113,6.656c8.744,0,13.118-3.652,15.027-6.717l0.779-0.996c0.724,0.813,1.484,1.49,2.222,2.026
		c5.476,3.827,13.626,5.687,24.919,5.687c10.917,0,19.978-3.192,26.936-9.487c7.15-6.473,10.776-15.117,10.776-25.695
		c0-10.226-3.222-18.591-9.592-24.876C113.583,19.929,104.564,16.649,93.377,16.649z M25.993,76.121
		c-2,2.295-4.419,3.441-8.803,3.441c-4.589,0-8.197-1.146-8.197-3.441V48.289c0-2.53,4.029-3.795,8.449-3.795
		c4.284,0,6.551,1.265,8.551,3.795V76.121z M58.993,76.121c-2,2.328-4.853,3.492-9.373,3.492c-4.655,0-8.627-1.164-9.627-3.492
		v-24.29c0-4.79-1.613-8.721-4.733-11.791c-3.121-3.07-7.17-4.605-12.096-4.605c-2.395,0-4.887,0.422-7.451,1.265
		c-2.903,0.945-5.051,2.176-6.433,3.695c-1.688-1.552-2.535-3.576-2.535-6.073c0-2.631,0.842-4.773,2.53-6.427
		c3.845-2.833,10.323-4.25,19.431-4.25c8.332,0,15.564,2.126,20.759,6.376c6.039,4.926,9.527,12.162,9.527,21.71V76.121z
		 M114.403,71.896c-5.686,5.145-13.132,7.717-22.343,7.717c-9.749,0-16.75-1.484-20.999-4.453c-1.856-1.348-2.784-3.457-2.784-6.326
		c0-3.17,1.063-5.549,3.188-7.135c4.553,3.88,9.715,5.82,15.485,5.82c4.891,0,8.957-1.434,12.195-4.302
		c3.509-3.069,5.264-7.151,5.264-12.246c0-4.52-1.123-8.256-3.365-11.209c-2.244-2.951-5.07-4.427-8.477-4.427
		c-2.665,0-4.807,0.759-6.427,2.277c-1.484,1.417-2.226,3.206-2.226,5.364c0,1.923,0.673,3.476,2.024,4.656
		c1.348,1.181,3.053,1.771,5.112,1.771c2.328,0,4.605-0.692,6.831-2.075c1.146,1.013,1.721,2.531,1.721,4.554
		c0,2.463-0.81,4.538-2.43,6.224c-2.328,2.295-5.787,3.441-10.374,3.441c-5.601,0-10.34-1.333-14.22-3.998
		c-4.487-3.137-6.731-7.489-6.731-13.055c0-5.735,2.177-10.526,6.529-14.372c4.993-4.419,11.993-6.629,21.001-6.629
		c9.378,0,16.715,2.598,22.012,7.793c5.026,4.96,7.54,11.623,7.54,19.989C122.929,59.878,120.086,66.752,114.403,71.896z"/>
	<path style="fill:#FFFFFF;" d="M293.465,18.832h-14.472V8.891l-0.989-1.658C275.956,3.933,271.652,0,262.986,0
		c-8.928,0-13.081,4.085-14.989,7.512l-1.003,1.553v9.086c-2-0.782-5.083-1.199-8.116-1.199c-7.464,0-12.519,2.324-15.02,6.906
		l-0.864,1.533v3.118c-1-1.165-1.685-2.28-2.651-3.295c-5.2-5.381-12.296-8.11-21.375-8.11c-7.192,0-12.722,1.475-16.866,4.511
		l-0.32,0.224l-0.296,0.257c-0.385,0.354-0.749,0.724-1.089,1.11c-2.792-4.141-7.871-6.254-14.88-6.254
		c-7.464,0-12.787,2.324-15.289,6.906l-1.233,1.533v53.031l1.788,1.833c3.043,4.015,8.284,6.051,14.939,6.051
		c5.357,0,9.61-1.329,12.585-3.919c2.099,2.038,5.547,3.818,10.999,3.818c5.225,0,8.528-1.721,10.58-3.66
		c2.851,2.599,7.059,3.913,12.56,3.913c5.862,0,10.186-1.606,13.133-4.748c3.079,3.05,7.592,4.597,13.388,4.597
		c6.801,0,11.809-2.11,14.71-6.27l1.319-1.764V42.963c2,0.521,3.269,0.869,4.77,0.869h14.23v7.595c0,3.057-1.176,5.528-3.054,7.751
		c-1.803,2.111-4.317,3.436-6.989,4.048l-4.117,0.951l-0.972,4.135c-0.292,1.221-0.433,2.453-0.433,3.661
		c0,3.834,1.378,7.392,4.015,10.328c3.257,3.575,6.6,4.325,8.829,4.325c0.336,0,0.555-0.017,0.807-0.043
		c8.845-0.775,16.31-4.057,22.398-9.734c7.137-6.587,10.516-15.209,10.516-25.626V31.236
		C304.993,21.329,299.003,18.832,293.465,18.832z M174.993,76.121c-2,2.227-4.97,3.34-9.423,3.34c-4.42,0-7.577-1.114-9.577-3.34
		V27.137c2-2.227,4.634-3.34,9.425-3.34c4.689,0,7.575,1.114,9.575,3.34V76.121z M220.993,76.121c-2,2.328-4.038,3.492-8.525,3.492
		c-4.724,0-8.475-1.164-8.475-3.492v-16.29h-1.109c-4.42,0-7.891,1.953-7.891,8.396v7.894c0,2.16-3,3.239-6.576,3.239
		c-3.711,0-4.424-1.079-6.424-3.239V69.29c0-6.275,2.112-10.663,5.79-14.037c3.543-3.238,8.758-4.421,15.101-4.421h1.109v-4.87
		c0-3.137-1.237-5.684-3.161-7.641c-1.788-1.855-4.154-2.783-6.817-2.783c-3.105,0-5.754,1.215-7.813,3.644
		c-1.653-1.417-2.513-3.373-2.513-5.87c0-2.598,0.808-4.655,2.461-6.173c2.903-2.126,7.16-3.188,12.795-3.188
		c7.187,0,12.457,2.008,16.337,6.022c3.98,4.183,5.711,10.29,5.711,18.318V76.121z M248.993,76.121c-2,2.227-4.97,3.34-9.423,3.34
		c-4.42,0-8.577-1.114-9.577-3.34V27.137c1-2.227,4.634-3.34,9.425-3.34c4.689,0,7.575,1.114,9.575,3.34V76.121z M297.993,51.224
		c0,8.469-2.534,15.333-8.235,20.596c-4.993,4.655-10.992,7.304-18.313,7.945c-1.349,0.135-2.636-0.556-4.02-2.075
		c-1.484-1.653-2.186-3.559-2.186-5.718c0-0.675,0.103-1.367,0.272-2.075c4.116-0.944,7.936-3.036,10.701-6.275
		c2.936-3.474,4.781-7.54,4.781-12.196V39.282c0-1.585-1.14-2.45-1.951-2.45h-19.28c-1.486,0-2.886-0.554-3.999-1.735
		c-1.113-1.181-1.771-2.613-1.771-4.367V10.842c1-2.664,4.403-3.998,8.923-3.998c4.453,0,8.077,1.333,9.077,3.998v11.791
		c0,1.35,0.842,2.199,1.788,2.199h19.684c3.441,0,4.528,2.019,4.528,6.404V51.224z"/>
</g>
</svg>
